<svg xmlns="http://www.w3.org/2000/svg" viewBox="0 0 512 512" role="img" aria-label="Vector database icon">
  <defs>
    <linearGradient id="bg" x1="0" x2="1" y1="0" y2="1">
      <stop offset="0%" stop-color="#0f172a" />
      <stop offset="100%" stop-color="#1e293b" />
    </linearGradient>
    <linearGradient id="line" x1="0" x2="1" y1="0" y2="0">
      <stop offset="0%" stop-color="#22d3ee" />
      <stop offset="100%" stop-color="#14b8a6" />
    </linearGradient>
  </defs>
  <rect width="512" height="512" fill="url(#bg)" />

  <g stroke="url(#line)" stroke-width="10" opacity="0.85">
    <line x1="98" y1="148" x2="232" y2="110" />
    <line x1="98" y1="148" x2="190" y2="250" />
    <line x1="232" y1="110" x2="354" y2="188" />
    <line x1="190" y1="250" x2="292" y2="292" />
    <line x1="292" y1="292" x2="404" y2="246" />
    <line x1="354" y1="188" x2="404" y2="246" />
    <line x1="190" y1="250" x2="146" y2="364" />
    <line x1="292" y1="292" x2="250" y2="400" />
    <line x1="146" y1="364" x2="250" y2="400" />
    <line x1="250" y1="400" x2="356" y2="360" />
    <line x1="404" y1="246" x2="356" y2="360" />
  </g>

  <g fill="#e2e8f0" stroke="#22d3ee" stroke-width="7">
    <circle cx="98" cy="148" r="18" />
    <circle cx="232" cy="110" r="18" />
    <circle cx="354" cy="188" r="18" />
    <circle cx="404" cy="246" r="18" />
    <circle cx="292" cy="292" r="18" />
    <circle cx="190" cy="250" r="18" />
    <circle cx="146" cy="364" r="18" />
    <circle cx="250" cy="400" r="18" />
    <circle cx="356" cy="360" r="18" />
  </g>

</svg>
